<svg xmlns="http://www.w3.org/2000/svg" version="1.1" x="0" y="0" xml:space="preserve" viewBox="0 0 200 45">
  <g>
    <path d="M3.4 23.9v.4c.2 2.5 1.1 9.9 9.6 9.9 2.8 0 5.3-1.1 6.9-3 1.6-1.9 2.2-4.5 1.9-7-.2-1.7-.9-3.1-1.4-4.5-.7-1.9-1.4-3.5-1.4-6.4 0-2.3.7-7.8 7.5-7.8s7.5 5.4 7.5 7.8c0 2.8-.7 4.6-1.4 6.4-.5 1.4-1.1 2.7-1.4 4.5-.5 2.6.2 5.2 1.9 7 1.6 2 4.1 3 6.9 3 8.5 0 9.4-7.4 9.6-9.9v-.4c.2-2.1.5-2.1 1.2-2.1v-5.4c-4 0-6.2 2.3-6.7 7v.4c-.4 3.5-1.1 4.9-4.2 4.9-1.2 0-2.2-.4-2.8-1.1-.2-.6-.4-1.6-.3-2.6.2-1.1.6-2.1 1-3.2.9-2 1.9-4.5 1.9-8.4 0-6.7-4.1-13.4-13-13.4-9 0-13 6.7-13 13.4 0 4 1 6.4 1.9 8.4.5 1.1.9 2.1 1 3.2.1 1 0 2-.6 2.6-.6.7-1.6 1.1-2.8 1.1-3.2 0-3.8-1.5-4.2-4.9v-.4c-.5-4.7-2.7-7-6.7-7v5.4c.8 0 .9 0 1.1 2.1z"/>
    <path d="M23.2 16.2h2.6v4.5h-2.6zm4.5 0h2.6v4.5h-2.6zm22 20.6c-3.2 3-7.3 3.5-9.4 3.5-4.1 0-7.8-1.6-10.3-4.5-.5-.6-.9-1.2-1.4-1.9l-.9-1.5h-2.3l-.8 1.6c-.4.6-.9 1.2-1.4 1.9-2.5 3-6.1 4.5-10.3 4.5-2.1 0-6.2-.4-9.4-3.3L.4 40.6c4.3 4 9.6 4.6 12.5 4.6 5.4 0 10.1-2.1 13.6-5.9 3.3 3.8 8.2 5.9 13.6 5.9 2.8 0 8.3-.6 12.6-4.7l-3-3.7z"/>
  </g>
  <path d="M68.4 30.9c0 2.7-.7 4.8-2 6.3s-3.3 2.2-5.8 2.2-4.4-.7-5.8-2.2c-1.3-1.5-2-3.6-2-6.3 0-2.7.7-4.8 2-6.3 1.4-1.4 3.3-2.2 5.8-2.2s4.5.7 5.8 2.2c1.3 1.5 2 3.6 2 6.3zm-12 0c0 1.8.3 3.2 1 4.1.7.9 1.7 1.4 3.1 1.4 2.8 0 4.2-1.8 4.2-5.5s-1.4-5.5-4.1-5.5c-1.4 0-2.4.5-3.1 1.4-.7.9-1.1 2.3-1.1 4.1zm22 8.4c-1.5 0-2.6-.5-3.5-1.6h-.2c.1 1 .2 1.7.2 1.8v5.1h-3.4v-18h2.8l.5 1.6h.2c.8-1.2 2-1.9 3.6-1.9 1.5 0 2.6.6 3.5 1.7s1.3 2.7 1.3 4.8c0 1.3-.2 2.5-.6 3.5-.4 1-1 1.7-1.7 2.3-.9.5-1.7.7-2.7.7zm-1-10.2c-.8 0-1.5.3-1.9.8s-.6 1.4-.6 2.6v.4c0 1.3.2 2.3.6 2.9.4.6 1 .9 1.9.9 1.5 0 2.3-1.3 2.3-3.8 0-1.2-.2-2.2-.6-2.8-.3-.7-.9-1-1.7-1zm14.4 10.2c-2 0-3.6-.6-4.7-1.7s-1.7-2.7-1.7-4.7c0-2.1.5-3.7 1.6-4.9 1.1-1.1 2.5-1.7 4.4-1.7 1.8 0 3.2.5 4.1 1.5S97 30.2 97 32v1.7h-8.1c0 1 .3 1.7.9 2.3s1.3.8 2.3.8c.8 0 1.5-.1 2.1-.2s1.4-.4 2.1-.8v2.7c-.6.3-1.2.5-1.9.7-.8.1-1.7.1-2.6.1zm-.5-10.5c-.7 0-1.3.2-1.7.7-.4.5-.6 1.1-.7 2h4.8c0-.8-.2-1.5-.7-2-.4-.5-1-.7-1.7-.7zm20 10.3h-3.4v-7.3c0-.9-.2-1.6-.5-2-.3-.5-.8-.7-1.5-.7-1 0-1.7.3-2.1 1-.4.6-.6 1.7-.6 3.2v5.9h-3.4V26.6h2.6l.5 1.6h.2c.4-.6.9-1.1 1.6-1.4.7-.3 1.4-.5 2.3-.5 1.5 0 2.6.4 3.3 1.2.8.8 1.1 1.9 1.1 3.4v8.2zm3.7-16.4h5.1c2.3 0 4 .3 5.1 1 1.1.7 1.6 1.7 1.6 3.2 0 1-.2 1.8-.7 2.4-.5.6-1.1 1-1.8 1.1v.1c1 .2 1.8.7 2.3 1.3.5.6.7 1.5.7 2.5 0 1.5-.5 2.7-1.6 3.5s-2.6 1.3-4.4 1.3H115V22.7zm3.5 6.5h2c.9 0 1.6-.1 2-.4s.6-.8.6-1.4c0-.6-.2-1.1-.7-1.4-.5-.3-1.2-.4-2.2-.4h-1.8v3.6zm0 2.8v4.3h2.3c1 0 1.7-.2 2.1-.6.5-.4.7-.9.7-1.7 0-1.4-1-2-2.9-2h-2.2zm11.6-8.7c0-1.1.6-1.7 1.9-1.7 1.2 0 1.9.6 1.9 1.7 0 .5-.2.9-.5 1.2-.3.3-.8.4-1.4.4-1.3.1-1.9-.5-1.9-1.6zm3.6 15.8h-3.4V26.6h3.4v12.5zm15-6.3c0 2-.5 3.6-1.6 4.8s-2.6 1.7-4.5 1.7c-1.2 0-2.3-.3-3.2-.8-.9-.5-1.6-1.3-2.1-2.3s-.7-2.1-.7-3.5c0-2.1.5-3.6 1.6-4.8 1.1-1.1 2.6-1.7 4.5-1.7 1.2 0 2.3.3 3.2.8.9.5 1.6 1.3 2.1 2.3s.7 2.2.7 3.5zm-8.7 0c0 1.2.2 2.2.6 2.8s1.1 1 2 1c.9 0 1.6-.3 2-.9s.6-1.6.6-2.8c0-1.2-.2-2.2-.6-2.8s-1.1-.9-2-.9c-.9 0-1.6.3-2 .9-.4.5-.6 1.5-.6 2.7zm16.8 3.8c.6 0 1.3-.1 2.2-.4v2.5c-.9.4-1.9.6-3.1.6-1.4 0-2.4-.3-3-1s-.9-1.7-.9-3.1v-6.1h-1.6v-1.4l1.9-1.1 1-2.7h2.2v2.7h3.5v2.6h-3.5v6.1c0 .5.1.8.4 1.1s.4.2.9.2zm10.4 2.7c-2 0-3.6-.6-4.7-1.7s-1.7-2.7-1.7-4.7c0-2.1.5-3.7 1.6-4.9s2.5-1.7 4.4-1.7c1.8 0 3.2.5 4.1 1.5s1.5 2.4 1.5 4.2v1.7h-8.1c0 1 .3 1.7.9 2.3s1.3.8 2.3.8c.8 0 1.5-.1 2.1-.2s1.4-.4 2.1-.8v2.7c-.6.3-1.2.5-1.9.7-.8.1-1.7.1-2.6.1zm-.5-10.5c-.7 0-1.3.2-1.7.7-.4.5-.6 1.1-.7 2h4.8c0-.8-.2-1.5-.7-2-.4-.5-1-.7-1.7-.7zm13.5 10.5c-3.9 0-5.9-2.1-5.9-6.4 0-2.1.5-3.8 1.6-4.9s2.6-1.7 4.6-1.7c1.5 0 2.8.3 3.9.9l-1 2.7c-.5-.2-1-.4-1.5-.5-.5-.1-.9-.2-1.4-.2-1.8 0-2.7 1.3-2.7 3.8s.9 3.7 2.7 3.7c.7 0 1.3-.1 1.8-.3s1.1-.5 1.7-.8v2.9c-.6.4-1.1.6-1.7.7s-1.3.1-2.1.1zm18.3-.2h-3.4v-7.3c0-1.8-.7-2.7-2-2.7-1 0-1.7.3-2.1 1s-.6 1.7-.6 3.2v5.9H187V21.7h3.4v3.6c0 .3 0 .9-.1 2l-.1 1h.2c.8-1.2 2-1.8 3.6-1.8 1.5 0 2.6.4 3.4 1.2.8.8 1.1 1.9 1.1 3.4v8zM60 16.5h-2.4V5.1h6.5v2H60V10h3.9v2H60v4.5zm11.7 0l-.5-1.2h-.1c-.4.5-.8.9-1.2 1.1-.4.2-1 .3-1.7.3-.8 0-1.5-.2-2-.7-.5-.5-.7-1.2-.7-2 0-.9.3-1.6 1-2.1.6-.4 1.6-.7 2.9-.7h1.5v-.4c0-.9-.5-1.3-1.4-1.3-.7 0-1.5.2-2.5.6l-.8-1.6c1-.5 2.1-.8 3.3-.8 1.2 0 2.1.3 2.7.8.6.5.9 1.3.9 2.3v5.8h-1.4zm-.7-4h-.9c-.7 0-1.2.1-1.5.4-.3.2-.5.6-.5 1 0 .7.4 1 1.2 1 .6 0 1-.2 1.3-.5.3-.3.5-.7.5-1.3v-.6zm8.5 2.3c.4 0 .9-.1 1.5-.3v1.8c-.6.3-1.3.4-2.2.4-1 0-1.6-.2-2.1-.7-.4-.5-.7-1.2-.7-2.2V9.6h-1.1v-1l1.3-.8.7-1.8h1.5v1.9h2.4v1.8h-2.4v4.2c0 .3.1.6.3.8.2 0 .5.1.8.1zm11.3 1.7h-2.4v-5.1c0-1.3-.5-1.9-1.4-1.9-.7 0-1.1.2-1.4.7s-.4 1.2-.4 2.2v4.1h-2.4V4.4h2.4v2.5c0 .2 0 .6-.1 1.4l-.1.6h.1c.5-.9 1.4-1.3 2.5-1.3 1 0 1.8.3 2.3.8.5.6.8 1.3.8 2.4v5.7zM92 7.8h2.6l1.6 4.9c.1.4.2.9.3 1.5l.3-1.5 1.6-4.9h2.6l-3.7 9.9c-.3.9-.8 1.6-1.4 2-.6.5-1.4.7-2.2.7-.4 0-.8 0-1.2-.1v-1.9c.3.1.6.1.9.1.4 0 .8-.1 1.1-.4.3-.3.6-.6.7-1.2l.1-.4L92 7.8zm18.2 8.7h-2.4v-5.1c0-.6-.1-1.1-.3-1.4-.2-.3-.5-.5-1-.5-.6 0-1.1.2-1.3.7-.3.4-.4 1.2-.4 2.2v4.1h-2.4V7.8h1.8l.3 1.1h.1c.2-.4.6-.7 1-.9s1-.3 1.5-.3c1.3 0 2.2.4 2.7 1.3h.2c.2-.4.6-.7 1-.9.5-.2 1-.3 1.5-.3 1 0 1.7.3 2.2.8s.8 1.3.8 2.4v5.7h-2.4v-5.1c0-.6-.1-1.1-.3-1.4-.2-.3-.5-.5-1-.5-.6 0-1 .2-1.3.6-.3.4-.4 1.1-.4 2v4.2zM120 5.1l.1.2c-.3 1-.7 2.3-1.4 3.7H117c.4-1.5.6-2.8.8-3.9h2.2zm7.7 8.8c0 .9-.3 1.6-.9 2s-1.6.7-2.8.7c-.6 0-1.2 0-1.6-.1s-.9-.2-1.3-.4v-2c.4.2.9.4 1.5.5s1 .2 1.5.2c.9 0 1.3-.2 1.3-.8 0-.2-.1-.3-.2-.5s-.3-.2-.6-.4-.7-.3-1.1-.5c-.7-.3-1.2-.5-1.5-.8s-.5-.5-.7-.8c-.1-.3-.2-.7-.2-1.1 0-.8.3-1.4.9-1.8.6-.4 1.5-.6 2.6-.6s2.1.2 3.1.7l-.7 1.7c-.4-.2-.8-.3-1.2-.5-.4-.1-.8-.2-1.2-.2-.7 0-1.1.2-1.1.6 0 .2.1.4.3.6s.7.4 1.5.7c.7.3 1.2.5 1.5.8s.6.5.7.8.2.8.2 1.2z"/>
</svg>
